<svg xmlns="http://www.w3.org/2000/svg" width="168.893" height="31.867" viewBox="0 0 168.893 31.867">
  <path d="M6.51-26.005V0H2.188V-26.005Zm8.8,8.05V0h-4.34V-17.955Zm.6-5.233a2.463,2.463,0,0,1-.228,1.05,2.886,2.886,0,0,1-.6.858,2.886,2.886,0,0,1-.884.586,2.712,2.712,0,0,1-1.085.219,2.607,2.607,0,0,1-1.059-.219,2.8,2.8,0,0,1-.866-.586,2.835,2.835,0,0,1-.586-.858,2.546,2.546,0,0,1-.219-1.05,2.712,2.712,0,0,1,.219-1.085,2.777,2.777,0,0,1,.586-.875,2.8,2.8,0,0,1,.866-.586,2.607,2.607,0,0,1,1.059-.219,2.712,2.712,0,0,1,1.085.219,2.886,2.886,0,0,1,.884.586,2.823,2.823,0,0,1,.6.875A2.622,2.622,0,0,1,15.908-23.187ZM24.045-4.655a4.254,4.254,0,0,0,1.6,1.26,4.634,4.634,0,0,0,1.829.367,4.32,4.32,0,0,0,1.794-.359,3.413,3.413,0,0,0,1.356-1.12,5.53,5.53,0,0,0,.857-1.943,11.7,11.7,0,0,0,.3-2.826,7.289,7.289,0,0,0-.98-4.279,3.3,3.3,0,0,0-2.818-1.321,4.068,4.068,0,0,0-2.17.569,7.1,7.1,0,0,0-1.767,1.6Zm0-11.1a8.91,8.91,0,0,1,2.406-1.811,6.553,6.553,0,0,1,3.019-.674,6.3,6.3,0,0,1,2.809.612,6.006,6.006,0,0,1,2.135,1.759A8.265,8.265,0,0,1,35.77-13.09a13.111,13.111,0,0,1,.472,3.657A13.629,13.629,0,0,1,35.7-5.46a9.128,9.128,0,0,1-1.549,3.054A7.045,7.045,0,0,1,31.728-.437a7.016,7.016,0,0,1-3.15.7A6.441,6.441,0,0,1,27.055.1,5.671,5.671,0,0,1,25.8-.368a5.087,5.087,0,0,1-1.059-.726,8.932,8.932,0,0,1-.919-.954L23.625-.84a1.086,1.086,0,0,1-.359.648A1.118,1.118,0,0,1,22.575,0H19.723V-26.005h4.323Zm15.4,3.378H48.51v3.6H39.445ZM66.693-9.555l-3.08-8.418q-.228-.56-.472-1.33t-.49-1.663q-.228.892-.472,1.671t-.472,1.356L58.643-9.555ZM75.005,0h-3.64a1.554,1.554,0,0,1-1-.306,1.907,1.907,0,0,1-.577-.761L67.9-6.23H57.418l-1.89,5.162a1.678,1.678,0,0,1-.542.735,1.514,1.514,0,0,1-1,.333H50.313L60.27-25.305h4.8ZM88.043-11.043a5.2,5.2,0,0,0-.236-1.584,3.764,3.764,0,0,0-.709-1.3,3.3,3.3,0,0,0-1.2-.884,4.114,4.114,0,0,0-1.689-.324,4,4,0,0,0-2.949,1.068,5.235,5.235,0,0,0-1.374,3.028ZM79.8-8.435a8.507,8.507,0,0,0,.49,2.389,4.886,4.886,0,0,0,1.015,1.662,3.975,3.975,0,0,0,1.5.98,5.436,5.436,0,0,0,1.916.324,5.941,5.941,0,0,0,1.811-.245,8.493,8.493,0,0,0,1.33-.543q.569-.3,1-.542a1.674,1.674,0,0,1,.831-.245.894.894,0,0,1,.805.4l1.242,1.575a7.2,7.2,0,0,1-1.61,1.409,9.029,9.029,0,0,1-1.864.91,10.187,10.187,0,0,1-1.978.481,14.159,14.159,0,0,1-1.951.14A9.591,9.591,0,0,1,80.85-.359,7.8,7.8,0,0,1,78.05-2.2a8.621,8.621,0,0,1-1.872-3.01A11.648,11.648,0,0,1,75.5-9.363a9.939,9.939,0,0,1,.6-3.456A8.311,8.311,0,0,1,77.8-15.636a8.033,8.033,0,0,1,2.712-1.9,8.935,8.935,0,0,1,3.614-.7,8.789,8.789,0,0,1,3.132.542,6.825,6.825,0,0,1,2.467,1.584,7.336,7.336,0,0,1,1.619,2.555,9.519,9.519,0,0,1,.586,3.456,2.806,2.806,0,0,1-.21,1.321.87.87,0,0,1-.805.341Zm29.173-1.12-3.08-8.418q-.227-.56-.472-1.33t-.49-1.663q-.227.892-.473,1.671t-.473,1.356l-3.062,8.383ZM117.285,0h-3.64a1.554,1.554,0,0,1-1-.306,1.907,1.907,0,0,1-.577-.761L110.18-6.23H99.7l-1.89,5.162a1.678,1.678,0,0,1-.542.735,1.514,1.514,0,0,1-1,.333H92.593l9.957-25.305h4.795Zm6.23-4.655a4.254,4.254,0,0,0,1.6,1.26A4.767,4.767,0,0,0,127-3.028a4.13,4.13,0,0,0,1.767-.367,3.463,3.463,0,0,0,1.339-1.12,5.541,5.541,0,0,0,.849-1.9,10.849,10.849,0,0,0,.3-2.7A12,12,0,0,0,131-11.786a5.156,5.156,0,0,0-.726-1.776,2.869,2.869,0,0,0-1.146-1,3.575,3.575,0,0,0-1.531-.315,4.368,4.368,0,0,0-2.293.569,6.959,6.959,0,0,0-1.785,1.6Zm-.227-10.85a9.365,9.365,0,0,1,2.5-2.012,6.722,6.722,0,0,1,3.29-.77,5.887,5.887,0,0,1,2.686.613,6.028,6.028,0,0,1,2.1,1.776,8.521,8.521,0,0,1,1.365,2.87,14.443,14.443,0,0,1,.481,3.911,12.3,12.3,0,0,1-.543,3.727,9.121,9.121,0,0,1-1.549,2.975,7.155,7.155,0,0,1-2.432,1.969A7.078,7.078,0,0,1,128,.263,6.437,6.437,0,0,1,125.423-.2a6.286,6.286,0,0,1-1.908-1.286v7.35h-4.322V-17.955h2.643a1.062,1.062,0,0,1,1.1.787ZM143.4-4.655a4.254,4.254,0,0,0,1.6,1.26,4.767,4.767,0,0,0,1.881.367,4.13,4.13,0,0,0,1.768-.367,3.464,3.464,0,0,0,1.339-1.12,5.541,5.541,0,0,0,.849-1.9,10.849,10.849,0,0,0,.3-2.7,12,12,0,0,0-.254-2.669,5.156,5.156,0,0,0-.726-1.776,2.869,2.869,0,0,0-1.146-1,3.575,3.575,0,0,0-1.531-.315,4.368,4.368,0,0,0-2.293.569,6.959,6.959,0,0,0-1.785,1.6Zm-.228-10.85a9.365,9.365,0,0,1,2.5-2.012,6.722,6.722,0,0,1,3.29-.77,5.887,5.887,0,0,1,2.686.613,6.028,6.028,0,0,1,2.1,1.776,8.52,8.52,0,0,1,1.365,2.87,14.441,14.441,0,0,1,.481,3.911,12.3,12.3,0,0,1-.542,3.727A9.121,9.121,0,0,1,153.5-2.415a7.155,7.155,0,0,1-2.432,1.969,7.078,7.078,0,0,1-3.194.709A6.436,6.436,0,0,1,145.3-.2,6.285,6.285,0,0,1,143.4-1.488v7.35h-4.323V-17.955h2.643a1.062,1.062,0,0,1,1.1.787Zm26.74,1.05a1.153,1.153,0,0,1-.367.394.952.952,0,0,1-.49.114,1.544,1.544,0,0,1-.674-.175q-.359-.175-.831-.394a7.613,7.613,0,0,0-1.076-.394,5.155,5.155,0,0,0-1.426-.175,3.283,3.283,0,0,0-2,.543,1.689,1.689,0,0,0-.726,1.417,1.352,1.352,0,0,0,.376.971,3.383,3.383,0,0,0,1,.691,9.763,9.763,0,0,0,1.409.534q.788.236,1.6.516t1.6.639a5.614,5.614,0,0,1,1.409.91,4.227,4.227,0,0,1,1,1.321,4.191,4.191,0,0,1,.376,1.855,6.057,6.057,0,0,1-.464,2.389,5.161,5.161,0,0,1-1.374,1.89,6.479,6.479,0,0,1-2.249,1.243A9.764,9.764,0,0,1,163.9.28a9.776,9.776,0,0,1-1.811-.166,10.691,10.691,0,0,1-1.7-.464,9.394,9.394,0,0,1-1.505-.7,7.305,7.305,0,0,1-1.216-.875l1-1.645a1.411,1.411,0,0,1,.455-.455,1.275,1.275,0,0,1,.665-.158,1.4,1.4,0,0,1,.761.228q.359.227.831.49a7.429,7.429,0,0,0,1.111.49,4.89,4.89,0,0,0,1.619.227,4.2,4.2,0,0,0,1.321-.184,2.8,2.8,0,0,0,.91-.481,1.807,1.807,0,0,0,.525-.691,2.072,2.072,0,0,0,.166-.814,1.452,1.452,0,0,0-.376-1.032,3.293,3.293,0,0,0-1-.7,9.634,9.634,0,0,0-1.417-.534q-.8-.236-1.628-.516a15.055,15.055,0,0,1-1.628-.656,5.547,5.547,0,0,1-1.417-.954,4.317,4.317,0,0,1-1-1.418,4.947,4.947,0,0,1-.376-2.03,5.172,5.172,0,0,1,.438-2.1,4.926,4.926,0,0,1,1.286-1.741,6.388,6.388,0,0,1,2.118-1.19,8.821,8.821,0,0,1,2.931-.446,8.973,8.973,0,0,1,3.378.612,7.629,7.629,0,0,1,2.538,1.61Z" transform="translate(-2.188 26.005)" fill="#eee"/>
</svg>
